<?xml version="1.0" encoding="utf-8"?>
<!-- Generator: Adobe Illustrator 23.0.6, SVG Export Plug-In . SVG Version: 6.00 Build 0)  -->
<svg version="1.1" id="Capa_1" xmlns="http://www.w3.org/2000/svg" xmlns:xlink="http://www.w3.org/1999/xlink" x="0px" y="0px"
	 width="512px" height="512px" viewBox="0 0 512 512" enable-background="new 0 0 512 512" xml:space="preserve">
<path d="M503.808,472.576L300.09,268.955c-6.976-6.973-6.977-18.282-0.002-25.255L504.925,38.912c0,0,7.075-6.33,7.075-16.477
	C512,10.054,501.946,0,489.565,0c-6.47,0-12.195,2.839-16.291,7.215l0,0L268.399,211.992c-6.966,6.962-18.256,6.962-25.221-0.001
	L39.61,8.471C35.468,3.398,29.463,0,22.435,0C10.054,0,0,10.054,0,22.435c0,10.612,6.609,16.477,6.609,16.477l204.833,204.784
	c6.976,6.975,6.976,18.285,0,25.259L6.842,473.507C2.653,477.603,0,483.235,0,489.565C0,501.946,10.054,512,22.435,512
	c6.191,0,11.823-2.513,15.872-6.563l0,0l204.828-204.779c6.964-6.962,18.253-6.962,25.217,0l204.828,204.779
	c0,0,6.703,6.563,16.337,6.563C501.946,512,512,501.946,512,489.565C512,482.676,508.695,476.719,503.808,472.576z"/>
</svg>
