<?xml version="1.0" encoding="utf-8"?>
<!-- Generator: Adobe Illustrator 23.0.6, SVG Export Plug-In . SVG Version: 6.00 Build 0)  -->
<svg version="1.1" id="Capa_1" xmlns="http://www.w3.org/2000/svg" xmlns:xlink="http://www.w3.org/1999/xlink" x="0px" y="0px"
	 width="512px" height="512px" viewBox="0 0 512 512" enable-background="new 0 0 512 512" xml:space="preserve">
<g>
	<path d="M336.691,5.024c-4.72-4.726-11.783-6.286-18.051-3.96L94.068,83.922c-4.703,1.737-8.411,5.446-10.149,10.149L1.063,318.644
		c-2.32,6.269-0.771,13.326,3.96,18.051c3.274,3.274,7.657,5.023,12.126,5.023c1.989,0,4-0.349,5.926-1.057l224.571-82.858
		c4.703-1.737,8.411-5.446,10.149-10.149l82.857-224.573C342.971,16.801,341.423,9.756,336.691,5.024z M228.366,228.363
		L46.103,295.615l67.246-182.264L295.618,46.1L228.366,228.363z"/>
	<path d="M506.977,175.312L336.691,5.024l-24.24,24.24l162.52,162.527l-76.32,206.858l-206.863,76.321L29.263,312.45l-24.24,24.24
		l170.286,170.287c3.274,3.274,7.657,5.023,12.126,5.023c1.989,0,3.994-0.343,5.931-1.057l224.566-82.858
		c4.703-1.731,8.411-5.446,10.149-10.149l82.857-224.568C513.257,187.089,511.709,180.043,506.977,175.312z"/>
	
		<rect x="309.706" y="206.46" transform="matrix(0.7071 -0.7071 0.7071 0.7071 -135.3925 326.8513)" width="34.28" height="240.797"/>
</g>
</svg>
