<?xml version="1.0" encoding="utf-8"?>
<!-- Generator: Adobe Illustrator 23.0.6, SVG Export Plug-In . SVG Version: 6.00 Build 0)  -->
<svg version="1.1" id="Capa_1" xmlns="http://www.w3.org/2000/svg" xmlns:xlink="http://www.w3.org/1999/xlink" x="0px" y="0px"
	 width="512px" height="512px" viewBox="0 0 512 512" enable-background="new 0 0 512 512" xml:space="preserve">
<g>
	<path d="M225.774,0C101.283,0,0,101.25,0,225.701s101.284,225.701,225.774,225.701s225.775-101.25,225.775-225.701
		S350.264,0,225.774,0z M225.774,414.299c-104.084,0-188.761-84.61-188.761-188.599c0-103.995,84.677-188.599,188.761-188.599
		S414.535,121.704,414.535,225.7C414.536,329.689,329.859,414.299,225.774,414.299z"/>
	<path d="M506.548,480.297L385.025,359.099c-7.248-7.222-18.963-7.191-26.174,0.068c-7.205,7.265-7.174,19.008,0.068,26.237
		l121.523,121.198c3.615,3.599,8.328,5.398,13.053,5.398c4.756,0,9.506-1.824,13.121-5.466
		C513.821,499.267,513.79,487.525,506.548,480.297z"/>
</g>
</svg>
