<?xml version="1.0" encoding="utf-8"?>
<!-- Generator: Adobe Illustrator 23.0.6, SVG Export Plug-In . SVG Version: 6.00 Build 0)  -->
<svg version="1.1" id="Capa_1" xmlns="http://www.w3.org/2000/svg" xmlns:xlink="http://www.w3.org/1999/xlink" x="0px" y="0px"
	 width="512px" height="512px" viewBox="0 0 512 512" enable-background="new 0 0 512 512" xml:space="preserve">
<g>
	<path d="M487.295,235.411H20.593c-11.372,0-20.59,9.224-20.59,20.59s9.217,20.59,20.59,20.59h466.702
		c11.372,0,20.59-9.217,20.59-20.59C507.885,244.628,498.668,235.411,487.295,235.411z"/>
	<path d="M505.963,241.437L304.19,39.656c-8.044-8.037-21.07-8.037-29.114,0c-8.044,8.044-8.044,21.084,0,29.121L462.292,256
		L275.076,443.224c-8.044,8.037-8.044,21.077,0,29.114c4.022,4.022,9.286,6.033,14.557,6.033s10.535-2.011,14.557-6.033
		l201.773-201.78C514.008,262.514,514.008,249.473,505.963,241.437z"/>
</g>
</svg>
