<?xml version="1.0" encoding="utf-8"?>
<!-- Generator: Adobe Illustrator 23.0.6, SVG Export Plug-In . SVG Version: 6.00 Build 0)  -->
<svg version="1.1" id="Capa_1" xmlns="http://www.w3.org/2000/svg" xmlns:xlink="http://www.w3.org/1999/xlink" x="0px" y="0px"
	 width="512px" height="512px" viewBox="0 0 512 512" enable-background="new 0 0 512 512" xml:space="preserve">
<g>
	<path d="M273.068,389.001l231.86-231.86c9.428-9.428,9.428-24.714,0-34.143l0,0c-9.428-9.428-24.714-9.428-34.143,0l-231.86,231.86
		c-9.428,9.428-9.428,24.714,0,34.143l0,0C248.354,398.43,263.64,398.43,273.068,389.001z"/>
	<path d="M238.932,389.001L7.071,157.141c-9.428-9.428-9.428-24.714,0-34.143l0,0c9.428-9.428,24.714-9.428,34.143,0l231.86,231.86
		c9.428,9.428,9.428,24.714,0,34.143l0,0C263.646,398.43,248.36,398.43,238.932,389.001z"/>
</g>
</svg>
