<?xml version="1.0" encoding="utf-8"?>
<!-- Generator: Adobe Illustrator 23.0.6, SVG Export Plug-In . SVG Version: 6.00 Build 0)  -->
<svg version="1.1" id="Capa_1" xmlns="http://www.w3.org/2000/svg" xmlns:xlink="http://www.w3.org/1999/xlink" x="0px" y="0px"
	 width="512px" height="512px" viewBox="0 0 512 512" enable-background="new 0 0 512 512" xml:space="preserve">
<path fill-rule="evenodd" clip-rule="evenodd" fill="#1A1A18" d="M241.156,360.478c-0.231-7.018-3.89-19.04-6.795-25.468
	c-11.424-25.284-30.222-43.57-52.987-59.216c-19.482,13.472-50.592,29.546-89.723,40.658l53.63,166.609
	c23.886-11.508,64.836-34.688,84.546-70.569C240.574,392.93,242.571,377.181,241.156,360.478z"/>
<path fill-rule="evenodd" clip-rule="evenodd" fill="#1A1A18" d="M241.553,182.544l-0.03,154.106
	c0.001-6.933-7.516-31.282-17.691-44.369c-18.424-23.689-35.691-37.473-57.629-49.664c-47.896-26.619-92.204-35.964-111.166-39.915
	L0,31.728c75.893,6.114,168.681,33.548,215.763,87.706C231.053,137.023,241.329,157.506,241.553,182.544z"/>
<path fill-rule="evenodd" clip-rule="evenodd" fill="#1A1A18" d="M270.845,357.687c0.231-7.018,3.89-19.04,6.794-25.468
	c11.425-25.284,30.223-43.57,52.988-59.216c19.481,13.472,50.59,29.546,89.723,40.658l-53.63,166.611
	c-23.887-11.51-64.838-34.689-84.548-70.571C271.426,390.139,269.43,374.391,270.845,357.687z"/>
<path fill-rule="evenodd" clip-rule="evenodd" fill="#1A1A18" d="M270.448,179.753l0.03,154.106
	c-0.002-6.933,7.515-31.282,17.691-44.369c18.424-23.689,35.691-37.471,57.629-49.663c47.893-26.62,92.203-35.966,111.166-39.916
	L512,28.939c-75.893,6.112-168.681,33.546-215.763,87.704C280.945,134.232,270.671,154.715,270.448,179.753z"/>
</svg>
